<?xml version="1.0" encoding="utf-8"?>
<svg xmlns="http://www.w3.org/2000/svg">
<symbol id="bb-icon-account-line" viewBox="0 0 24 24"><path fill="none" d="M0 0h24v24H0z"/><path d="M9.745 21.745C5.308 20.722 2 16.747 2 12 2 6.477 6.477 2 12 2s10 4.477 10 10c0 4.747-3.308 8.722-7.745 9.745L12 24l-2.255-2.255zm-2.733-3.488a7.953 7.953 0 0 0 3.182 1.539l.56.129L12 21.172l1.247-1.247.56-.13a7.956 7.956 0 0 0 3.36-1.686A6.979 6.979 0 0 0 12.16 16c-2.036 0-3.87.87-5.148 2.257zM5.616 16.82A8.975 8.975 0 0 1 12.16 14a8.972 8.972 0 0 1 6.362 2.634 8 8 0 1 0-12.906.187zM12 13a4 4 0 1 1 0-8 4 4 0 0 1 0 8zm0-2a2 2 0 1 0 0-4 2 2 0 0 0 0 4z"/>
</symbol>
<symbol id="bb-icon-account" viewBox="0 0 24 24"><path d="M20 6h-3V4c0-1.103-.897-2-2-2H9c-1.103 0-2 .897-2 2v2H4c-1.103 0-2 .897-2 2v11c0 1.103.897 2 2 2h16c1.103 0 2-.897 2-2V8c0-1.103-.897-2-2-2zm-5-2v2H9V4h6zM8 8h12v3H4V8h4zM4 19v-6h6v2h4v-2h6l.001 6H4z"/>
</symbol>
<symbol id="bb-icon-add-box" viewBox="0 0 24 24"><path fill="none" d="M0 0h24v24H0z"/><path d="M4 3h16a1 1 0 0 1 1 1v16a1 1 0 0 1-1 1H4a1 1 0 0 1-1-1V4a1 1 0 0 1 1-1zm1 2v14h14V5H5zm6 6V7h2v4h4v2h-4v4h-2v-4H7v-2h4z"/>
</symbol>
<symbol id="bb-icon-add" viewBox="0 0 24 24"><path fill="none" d="M0 0h24v24H0z"/><path d="M11 11V5h2v6h6v2h-6v6h-2v-6H5v-2z"/>
</symbol>
<symbol id="bb-icon-adjust" viewBox="0 0 24 24"><path fill="none" d="M0 0h24v24H0z"/><path d="M21 18v3h-2v-3h-2v-2h6v2h-2zM5 18v3H3v-3H1v-2h6v2H5zm6-12V3h2v3h2v2H9V6h2zm0 4h2v11h-2V10zm-8 4V3h2v11H3zm16 0V3h2v11h-2z"/>
</symbol>
<symbol id="bb-icon-alert-triangle" viewBox="0 0 24 24"><path fill="none" d="M0 0h24v24H0z"/><path d="M12.866 3l9.526 16.5a1 1 0 0 1-.866 1.5H2.474a1 1 0 0 1-.866-1.5L11.134 3a1 1 0 0 1 1.732 0zm-8.66 16h15.588L12 5.5 4.206 19zM11 16h2v2h-2v-2zm0-7h2v5h-2V9z"/>
</symbol>
<symbol id="bb-icon-arrow-double-left" viewBox="0 0 24 24"><path d="m12.707 7.707-1.414-1.414L5.586 12l5.707 5.707 1.414-1.414L8.414 12z"/><path d="M16.293 6.293 10.586 12l5.707 5.707 1.414-1.414L13.414 12l4.293-4.293z"/>
</symbol>
<symbol id="bb-icon-arrow-double-right" viewBox="0 0 24 24"><path d="M10.296 7.71 14.621 12l-4.325 4.29 1.408 1.42L17.461 12l-5.757-5.71z"/><path d="M6.704 6.29 5.296 7.71 9.621 12l-4.325 4.29 1.408 1.42L12.461 12z"/>
</symbol>
<symbol id="bb-icon-arrow-down" viewBox="0 0 24 24"><path fill="none" d="M0 0h24v24H0z"/><path d="M12 13.172l4.95-4.95 1.414 1.414L12 16 5.636 9.636 7.05 8.222z"/>
</symbol>
<symbol id="bb-icon-arrow-exchange" viewBox="0 0 24 24"><path fill="none" d="M0 0h24v24H0z"/><path d="M16.05 12.05L21 17l-4.95 4.95-1.414-1.414 2.536-2.537L4 18v-2h13.172l-2.536-2.536 1.414-1.414zm-8.1-10l1.414 1.414L6.828 6 20 6v2H6.828l2.536 2.536L7.95 11.95 3 7l4.95-4.95z"/>
</symbol>
<symbol id="bb-icon-arrow-left" viewBox="0 0 24 24"><path fill="none" d="M0 0h24v24H0z"/><path d="M10.828 12l4.95 4.95-1.414 1.414L8 12l6.364-6.364 1.414 1.414z"/>
</symbol>
<symbol id="bb-icon-arrow-right-circle" viewBox="0 0 24 24"><path fill="none" d="M0 0h24v24H0z"/><path d="M12 11V8l4 4-4 4v-3H8v-2h4zm0-9c5.52 0 10 4.48 10 10s-4.48 10-10 10S2 17.52 2 12 6.48 2 12 2zm0 18c4.42 0 8-3.58 8-8s-3.58-8-8-8-8 3.58-8 8 3.58 8 8 8z"/>
</symbol>
<symbol id="bb-icon-arrow-right" viewBox="0 0 24 24"><path fill="none" d="M0 0h24v24H0z"/><path d="M13.172 12l-4.95-4.95 1.414-1.414L16 12l-6.364 6.364-1.414-1.414z"/>
</symbol>
<symbol id="bb-icon-arrow-up" viewBox="0 0 24 24"><path fill="none" d="M0 0h24v24H0z"/><path d="M12 10.828l-4.95 4.95-1.414-1.414L12 8l6.364 6.364-1.414 1.414z"/>
</symbol>
<symbol id="bb-icon-auto-ai" viewBox="0 0 24 24">
  <path fill="none" d="M0 0h24v24H0z"/>
  <path d="M2.88 7.88l1.54 1.54C4.15 10.23 4 11.1 4 12c0 4.41 3.59 8 8 8s8-3.59 8-8-3.59-8-8-8c-.9 0-1.77.15-2.58.42L7.89 2.89C9.15 2.32 10.54 2 12 2c5.52 0 10 4.48 10 10s-4.48 10-10 10S2 17.52 2 12c0-1.47.32-2.86.88-4.12zM7 5.5C7 6.33 6.33 7 5.5 7S4 6.33 4 5.5 4.67 4 5.5 4 7 4.67 7 5.5zm5.03 3.49h-.07L10.8 12.3h2.39l-1.16-3.31zm-.74-1.49h1.43l3.01 8h-1.39l-.72-2.04h-3.23l-.73 2.04H8.28l3.01-8z"/>

</symbol>
<symbol id="bb-icon-back" viewBox="0 0 24 24"><path fill="none" d="M0 0h24v24H0z"/><path d="M5.828 7l2.536 2.536L6.95 10.95 2 6l4.95-4.95 1.414 1.414L5.828 5H13a8 8 0 1 1 0 16H4v-2h9a6 6 0 1 0 0-12H5.828z"/>
</symbol>
<symbol id="bb-icon-bar-chart-box" viewBox="0 0 24 24"><path fill="none" d="M0 0h24v24H0z"/><path d="M3 3h18a1 1 0 0 1 1 1v16a1 1 0 0 1-1 1H3a1 1 0 0 1-1-1V4a1 1 0 0 1 1-1zm1 2v14h16V5H4zm3 8h2v4H7v-4zm4-6h2v10h-2V7zm4 3h2v7h-2v-7z"/>
</symbol>
<symbol id="bb-icon-best" viewBox="0 0 24 24"><path fill="none" d="M0 0h24v24H0z"/><path d="M12 7a8 8 0 1 1 0 16 8 8 0 0 1 0-16zm0 2a6 6 0 1 0 0 12 6 6 0 0 0 0-12zm0 1.5l1.323 2.68 2.957.43-2.14 2.085.505 2.946L12 17.25l-2.645 1.39.505-2.945-2.14-2.086 2.957-.43L12 10.5zM18 2v3l-1.363 1.138A9.935 9.935 0 0 0 13 5.049L13 2 18 2zm-7-.001v3.05a9.935 9.935 0 0 0-3.636 1.088L6 5V2l5-.001z"/>
</symbol>
<symbol id="bb-icon-browser-plus" viewBox="0 0 24 24">
  <path stroke="none" d="M0 0h24v24H0z" fill="none"/>
  <rect x="4" y="4" width="16" height="16" rx="1"/>
  <path d="M4 8h16"/>
  <path d="M8 4v4"/>
  <path d="M10 14h4"/>
  <path d="M12 12v4"/>

</symbol>
<symbol id="bb-icon-calendar" viewBox="0 0 24 24">
<path fill-rule="evenodd" clip-rule="evenodd" d="M8.11111 14.8C8.11111 14.415 8.46111 14.1 8.88889 14.1C9.31667 14.1 9.66667 14.415 9.66667 14.8C9.66667 15.185 9.31667 15.5 8.88889 15.5C8.46111 15.5 8.11111 15.185 8.11111 14.8ZM12 14.1H15.1111C15.5389 14.1 15.8889 14.415 15.8889 14.8C15.8889 15.185 15.5389 15.5 15.1111 15.5H12C11.5722 15.5 11.2222 15.185 11.2222 14.8C11.2222 14.415 11.5722 14.1 12 14.1ZM16.6667 17.6H7.33333C6.90478 17.6 6.55556 17.2857 6.55556 16.9V12.7H17.4444V16.9C17.4444 17.2857 17.0952 17.6 16.6667 17.6ZM7.33333 7.8H8.11111V8.5C8.11111 8.885 8.46111 9.2 8.88889 9.2C9.31667 9.2 9.66667 8.885 9.66667 8.5V7.8H14.3333V8.5C14.3333 8.885 14.6833 9.2 15.1111 9.2C15.5389 9.2 15.8889 8.885 15.8889 8.5V7.8H16.6667C17.0952 7.8 17.4444 8.1143 17.4444 8.5V11.3H6.55556V8.5C6.55556 8.1143 6.90478 7.8 7.33333 7.8ZM16.6667 6.4H15.8889V5.7C15.8889 5.315 15.5389 5 15.1111 5C14.6833 5 14.3333 5.315 14.3333 5.7V6.4H9.66667V5.7C9.66667 5.315 9.31667 5 8.88889 5C8.46111 5 8.11111 5.315 8.11111 5.7V6.4H7.33333C6.04689 6.4 5 7.3422 5 8.5V16.9C5 18.0578 6.04689 19 7.33333 19H16.6667C17.9531 19 19 18.0578 19 16.9V8.5C19 7.3422 17.9531 6.4 16.6667 6.4Z" fill="currentColor"/>
<mask id="mask0_786_203" style="mask-type:alpha" maskUnits="userSpaceOnUse" x="5" y="5" width="14" height="14">
<path fill-rule="evenodd" clip-rule="evenodd" d="M8.11111 14.8C8.11111 14.415 8.46111 14.1 8.88889 14.1C9.31667 14.1 9.66667 14.415 9.66667 14.8C9.66667 15.185 9.31667 15.5 8.88889 15.5C8.46111 15.5 8.11111 15.185 8.11111 14.8ZM12 14.1H15.1111C15.5389 14.1 15.8889 14.415 15.8889 14.8C15.8889 15.185 15.5389 15.5 15.1111 15.5H12C11.5722 15.5 11.2222 15.185 11.2222 14.8C11.2222 14.415 11.5722 14.1 12 14.1ZM16.6667 17.6H7.33333C6.90478 17.6 6.55556 17.2857 6.55556 16.9V12.7H17.4444V16.9C17.4444 17.2857 17.0952 17.6 16.6667 17.6ZM7.33333 7.8H8.11111V8.5C8.11111 8.885 8.46111 9.2 8.88889 9.2C9.31667 9.2 9.66667 8.885 9.66667 8.5V7.8H14.3333V8.5C14.3333 8.885 14.6833 9.2 15.1111 9.2C15.5389 9.2 15.8889 8.885 15.8889 8.5V7.8H16.6667C17.0952 7.8 17.4444 8.1143 17.4444 8.5V11.3H6.55556V8.5C6.55556 8.1143 6.90478 7.8 7.33333 7.8ZM16.6667 6.4H15.8889V5.7C15.8889 5.315 15.5389 5 15.1111 5C14.6833 5 14.3333 5.315 14.3333 5.7V6.4H9.66667V5.7C9.66667 5.315 9.31667 5 8.88889 5C8.46111 5 8.11111 5.315 8.11111 5.7V6.4H7.33333C6.04689 6.4 5 7.3422 5 8.5V16.9C5 18.0578 6.04689 19 7.33333 19H16.6667C17.9531 19 19 18.0578 19 16.9V8.5C19 7.3422 17.9531 6.4 16.6667 6.4Z" fill="white"/>
</mask>
<g mask="url(#mask0_786_203)">
</g>

</symbol>
<symbol id="bb-icon-campaign" viewBox="0 0 24 24"><path d="M19.875 3H4.125C2.953 3 2 3.897 2 5v14c0 1.103.953 2 2.125 2h15.75C21.047 21 22 20.103 22 19V5c0-1.103-.953-2-2.125-2zm0 16H4.125c-.057 0-.096-.016-.113-.016-.007 0-.011.002-.012.008L3.988 5.046c.007-.01.052-.046.137-.046h15.75c.079.001.122.028.125.008l.012 13.946c-.007.01-.052.046-.137.046z"/><path d="M6 7h6v6H6zm7 8H6v2h12v-2h-4zm1-4h4v2h-4zm0-4h4v2h-4z"/>
</symbol>
<symbol id="bb-icon-card-american" viewBox="0 0 24 24"><title>American Express</title><path d="M16.015 14.378c0-.32-.135-.496-.344-.622-.21-.12-.464-.135-.81-.135h-1.543v2.82h.675v-1.027h.72c.24 0 .39.024.478.125.12.13.104.38.104.55v.35h.66v-.555c-.002-.25-.017-.376-.108-.516-.06-.08-.18-.18-.33-.234l.02-.008c.18-.072.48-.297.48-.747zm-.87.407l-.028-.002c-.09.053-.195.058-.33.058h-.81v-.63h.824c.12 0 .24 0 .33.05.098.048.156.147.15.255 0 .12-.045.215-.134.27zM20.297 15.837H19v.6h1.304c.676 0 1.05-.278 1.05-.884 0-.28-.066-.448-.187-.582-.153-.133-.392-.193-.73-.207l-.376-.015c-.104 0-.18 0-.255-.03-.09-.03-.15-.105-.15-.21 0-.09.017-.166.09-.21.083-.046.177-.066.272-.06h1.23v-.602h-1.35c-.704 0-.958.437-.958.84 0 .9.776.855 1.407.87.104 0 .18.015.225.06.046.03.082.106.082.18 0 .077-.035.15-.08.18-.06.053-.15.07-.277.07zM0 0v10.096L.81 8.22h1.75l.225.464V8.22h2.043l.45 1.02.437-1.013h6.502c.295 0 .56.057.756.236v-.23h1.787v.23c.307-.17.686-.23 1.12-.23h2.606l.24.466v-.466h1.918l.254.465v-.466h1.858v3.948H20.87l-.36-.6v.585h-2.353l-.256-.63h-.583l-.27.614h-1.213c-.48 0-.84-.104-1.08-.24v.24h-2.89v-.884c0-.12-.03-.12-.105-.135h-.105v1.036H6.067v-.48l-.21.48H4.69l-.202-.48v.465H2.235l-.256-.624H1.4l-.256.624H0V24h23.786v-7.108c-.27.135-.613.18-.973.18H21.09v-.255c-.21.165-.57.255-.914.255H14.71v-.9c0-.12-.018-.12-.12-.12h-.075v1.022h-1.8v-1.066c-.298.136-.643.15-.928.136h-.214v.915h-2.18l-.54-.617-.57.6H4.742v-3.93h3.61l.518.602.554-.6h2.412c.28 0 .74.03.942.225v-.24h2.177c.202 0 .644.045.903.225v-.24h3.265v.24c.163-.164.508-.24.803-.24h1.89v.24c.194-.15.464-.24.84-.24h1.176V0H0zM21.156 14.955c.004.005.006.012.01.016.01.01.024.01.032.02l-.042-.035zM23.828 13.082h.065v.555h-.065zM23.865 15.03v-.005c-.03-.025-.046-.048-.075-.07-.15-.153-.39-.215-.764-.225l-.36-.012c-.12 0-.194-.007-.27-.03-.09-.03-.15-.105-.15-.21 0-.09.03-.16.09-.204.076-.045.15-.05.27-.05h1.223v-.588h-1.283c-.69 0-.96.437-.96.84 0 .9.78.855 1.41.87.104 0 .18.015.224.06.046.03.076.106.076.18 0 .07-.034.138-.09.18-.045.056-.136.07-.27.07h-1.288v.605h1.287c.42 0 .734-.118.9-.36h.03c.09-.134.135-.3.135-.523 0-.24-.045-.39-.135-.526zM18.597 14.208v-.583h-2.235V16.458h2.235v-.585h-1.57v-.57h1.533v-.584h-1.532v-.51M13.51 8.787h.685V11.6h-.684zM13.126 9.543l-.007.006c0-.314-.13-.5-.34-.624-.217-.125-.47-.135-.81-.135H10.43v2.82h.674v-1.034h.72c.24 0 .39.03.487.12.122.136.107.378.107.548v.354h.677v-.553c0-.25-.016-.375-.11-.516-.09-.107-.202-.19-.33-.237.172-.07.472-.3.472-.75zm-.855.396h-.015c-.09.054-.195.056-.33.056H11.1v-.623h.825c.12 0 .24.004.33.05.09.04.15.128.15.25s-.047.22-.134.266zM15.92 9.373h.632v-.6h-.644c-.464 0-.804.105-1.02.33-.286.3-.362.69-.362 1.11 0 .512.123.833.36 1.074.232.238.645.31.97.31h.78l.255-.627h1.39l.262.627h1.36v-2.11l1.272 2.11h.95l.002.002V8.786h-.684v1.963l-1.18-1.96h-1.02V11.4L18.11 8.744h-1.004l-.943 2.22h-.3c-.177 0-.362-.03-.468-.134-.125-.15-.186-.36-.186-.662 0-.285.08-.51.194-.63.133-.135.272-.165.516-.165zm1.668-.108l.464 1.118v.002h-.93l.466-1.12zM2.38 10.97l.254.628H4V9.393l.972 2.205h.584l.973-2.202.015 2.202h.69v-2.81H6.118l-.807 1.904-.876-1.905H3.343v2.663L2.205 8.787h-.997L.01 11.597h.72l.26-.626h1.39zm-.688-1.705l.46 1.118-.003.002h-.915l.457-1.12zM11.856 13.62H9.714l-.85.923-.825-.922H5.346v2.82H8l.855-.932.824.93h1.302v-.94h.838c.6 0 1.17-.164 1.17-.945l-.006-.003c0-.78-.598-.93-1.128-.93zM7.67 15.853l-.014-.002H6.02v-.557h1.47v-.574H6.02v-.51H7.7l.733.82-.764.824zm2.642.33l-1.03-1.147 1.03-1.108v2.253zm1.553-1.258h-.885v-.717h.885c.24 0 .42.098.42.344 0 .243-.15.372-.42.372zM9.967 9.373v-.586H7.73V11.6h2.237v-.58H8.4v-.564h1.527V9.88H8.4v-.507"/>
</symbol>
<symbol id="bb-icon-card-jcb" viewBox="0 0 24 24"><title>JCB</title><path d="M13.05 9.8643c.9723.0736 1.7257.3671 2.3545.6843v-1.31s-1.2577-.3162-2.4408-.368c-4.1256-.1849-5.295 1.4344-5.295 3.1292 0 1.6947 1.1694 3.3145 5.295 3.1296 1.1831-.0536 2.4408-.3694 2.4408-.3694v-1.3086c-.6193.3081-1.3826.6107-2.3545.683-1.6793.1272-2.6898-.6907-2.6898-2.1342 0-1.4448 1.0105-2.2613 2.6898-2.1354m7.685 4.1223c-.0513.0105-.1581.02-.215.02h-1.8005V12.376H20.52c.0568 0 .1636.01.2149.02a.8056.8056 0 01.6325.7951c0 .4162-.2872.721-.6325.796zm-2.0155-4.0374h1.6325c.059 0 .1454.0077.1772.0137.3376.0572.6256.3307.6256.7392 0 .409-.288.6815-.626.7392a1.571 1.571 0 01-.1773.0137h-1.6311V9.9506zm3.4994 1.9856v-.0364c.9133-.1331 1.4149-.726 1.4149-1.4199 0-.8828-.7343-1.3916-1.7293-1.4416-.0772-.0032-.203-.011-.3044-.011h-5.3323v5.9467h5.7548c1.13 0 1.9774-.6043 1.9774-1.5466 0-.8701-.7724-1.4222-1.781-1.4917zm-17.8644.6788c0 .8787-.5906 1.5311-1.6656 1.5311-.917 0-1.8174-.2726-2.6889-.6938V14.76s1.4021.383 3.191.383c2.9714 0 3.8374-1.125 3.8374-2.529V9.0266H4.3541v3.5876Z"/>
</symbol>
<symbol id="bb-icon-card-master" viewBox="0 0 24 24"><title>MasterCard</title><path d="M11.343 18.031c.058.049.12.098.181.146-1.177.783-2.59 1.238-4.107 1.238C3.32 19.416 0 16.096 0 12c0-4.095 3.32-7.416 7.416-7.416 1.518 0 2.931.456 4.105 1.238-.06.051-.12.098-.165.15C9.6 7.489 8.595 9.688 8.595 12c0 2.311 1.001 4.51 2.748 6.031zm5.241-13.447c-1.52 0-2.931.456-4.105 1.238.06.051.12.098.165.15C14.4 7.489 15.405 9.688 15.405 12c0 2.31-1.001 4.507-2.748 6.031-.058.049-.12.098-.181.146 1.177.783 2.588 1.238 4.107 1.238C20.68 19.416 24 16.096 24 12c0-4.094-3.32-7.416-7.416-7.416zM12 6.174c-.096.075-.189.15-.28.231C10.156 7.764 9.169 9.765 9.169 12c0 2.236.987 4.236 2.551 5.595.09.08.185.158.28.232.096-.074.189-.152.28-.232 1.563-1.359 2.551-3.359 2.551-5.595 0-2.235-.987-4.236-2.551-5.595-.09-.08-.184-.156-.28-.231z"/>
</symbol>
<symbol id="bb-icon-card-visa" viewBox="0 0 24 24"><path fill="none" d="M0 0h24v24H0z"/><path d="M22.222 15.768l-.225-1.125h-2.514l-.4 1.117-2.015.004a4199.19 4199.19 0 0 1 2.884-6.918c.164-.391.455-.59.884-.588.328.003.863.003 1.606.001L24 15.765l-1.778.003zm-2.173-2.666h1.62l-.605-2.82-1.015 2.82zM7.06 8.257l2.026.002-3.132 7.51-2.051-.002a950.849 950.849 0 0 1-1.528-5.956c-.1-.396-.298-.673-.679-.804C1.357 8.89.792 8.71 0 8.465V8.26h3.237c.56 0 .887.271.992.827.106.557.372 1.975.8 4.254L7.06 8.257zm4.81.002l-1.602 7.508-1.928-.002L9.94 8.257l1.93.002zm3.91-.139c.577 0 1.304.18 1.722.345l-.338 1.557c-.378-.152-1-.357-1.523-.35-.76.013-1.23.332-1.23.638 0 .498.816.749 1.656 1.293.959.62 1.085 1.177 1.073 1.782-.013 1.256-1.073 2.495-3.309 2.495-1.02-.015-1.388-.101-2.22-.396l.352-1.625c.847.355 1.206.468 1.93.468.663 0 1.232-.268 1.237-.735.004-.332-.2-.497-.944-.907-.744-.411-1.788-.98-1.774-2.122.017-1.462 1.402-2.443 3.369-2.443z"/>
</symbol>
<symbol id="bb-icon-check-fill" viewBox="0 0 24 24"><path fill="none" d="M0 0h24v24H0z"/><path d="M12 22C6.477 22 2 17.523 2 12S6.477 2 12 2s10 4.477 10 10-4.477 10-10 10zm-.997-6l7.07-7.071-1.414-1.414-5.656 5.657-2.829-2.829-1.414 1.414L11.003 16z"/>
</symbol>
<symbol id="bb-icon-check" viewBox="0 0 24 24"><path fill="none" d="M0 0h24v24H0z"/><path d="M10 15.172l9.192-9.193 1.415 1.414L10 18l-6.364-6.364 1.414-1.414z"/>
</symbol>
<symbol id="bb-icon-circle-fill" viewBox="0 0 24 24"><path d="M12 2C6.486 2 2 6.486 2 12s4.486 10 10 10 10-4.486 10-10S17.514 2 12 2z"/>
</symbol>
<symbol id="bb-icon-close-circle" viewBox="0 0 24 24"><path fill="none" d="M0 0h24v24H0z"/><path d="M12 22C6.477 22 2 17.523 2 12S6.477 2 12 2s10 4.477 10 10-4.477 10-10 10zm0-2a8 8 0 1 0 0-16 8 8 0 0 0 0 16zm0-9.414l2.828-2.829 1.415 1.415L13.414 12l2.829 2.828-1.415 1.415L12 13.414l-2.828 2.829-1.415-1.415L10.586 12 7.757 9.172l1.415-1.415L12 10.586z"/>
</symbol>
<symbol id="bb-icon-close-fill" viewBox="0 0 24 24"><path fill="none" d="M0 0h24v24H0z"/><path d="M12 22C6.477 22 2 17.523 2 12S6.477 2 12 2s10 4.477 10 10-4.477 10-10 10zm0-11.414L9.172 7.757 7.757 9.172 10.586 12l-2.829 2.828 1.415 1.415L12 13.414l2.828 2.829 1.415-1.415L13.414 12l2.829-2.828-1.415-1.415L12 10.586z"/>
</symbol>
<symbol id="bb-icon-close" viewBox="0 0 24 24"><path fill="none" d="M0 0h24v24H0z"/><path d="M12 10.586l4.95-4.95 1.414 1.414-4.95 4.95 4.95 4.95-1.414 1.414-4.95-4.95-4.95 4.95-1.414-1.414 4.95-4.95-4.95-4.95L7.05 5.636z"/>
</symbol>
<symbol id="bb-icon-column" viewBox="0 0 24 24"><path fill="none" d="M0 0h24v24H0z"/><path d="M11 5H5v14h6V5zm2 0v14h6V5h-6zM4 3h16a1 1 0 0 1 1 1v16a1 1 0 0 1-1 1H4a1 1 0 0 1-1-1V4a1 1 0 0 1 1-1z"/>
</symbol>
<symbol id="bb-icon-copy" viewBox="0 0 24 24"><path fill="none" d="M0 0h24v24H0z"/><path d="M7 6V3a1 1 0 0 1 1-1h12a1 1 0 0 1 1 1v14a1 1 0 0 1-1 1h-3v3c0 .552-.45 1-1.007 1H4.007A1.001 1.001 0 0 1 3 21l.003-14c0-.552.45-1 1.006-1H7zM5.002 8L5 20h10V8H5.002zM9 6h8v10h2V4H9v2zm-2 5h6v2H7v-2zm0 4h6v2H7v-2z"/>
</symbol>
<symbol id="bb-icon-cry" viewBox="0 0 24 24">
  <g stroke-width="2" stroke="currentColor" fill="none" stroke-linecap="round" stroke-linejoin="round">
  <path stroke="none" d="M0 0h24v24H0z" fill="none"/>
  <line x1="9" y1="10" x2="9.01" y2="10"/>
  <line x1="15" y1="10" x2="15.01" y2="10"/>
  <path d="M9.5 15.25a3.5 3.5 0 0 1 5 0"/>
  <path d="M17.566 17.606a2 2 0 1 0 2.897 .03l-1.463 -1.636l-1.434 1.606z"/>
  <path d="M20.865 13.517a8.937 8.937 0 0 0 .135 -1.517a9 9 0 1 0 -9 9c.69 0 1.36 -.076 2 -.222"/>
</g>

</symbol>
<symbol id="bb-icon-delete" viewBox="0 0 24 24"><path fill="none" d="M0 0h24v24H0z"/><path d="M17 6h5v2h-2v13a1 1 0 0 1-1 1H5a1 1 0 0 1-1-1V8H2V6h5V3a1 1 0 0 1 1-1h8a1 1 0 0 1 1 1v3zm1 2H6v12h12V8zm-9 3h2v6H9v-6zm4 0h2v6h-2v-6zM9 4v2h6V4H9z"/>
</symbol>
<symbol id="bb-icon-download" viewBox="0 0 24 24"><path fill="none" d="M0 0h24v24H0z"/><path d="M3 19h18v2H3v-2zm10-5.828L19.071 7.1l1.414 1.414L12 17 3.515 8.515 4.929 7.1 11 13.17V2h2v11.172z"/>
</symbol>
<symbol id="bb-icon-draft" viewBox="0 0 24 24"><path fill="none" d="M0 0L24 0 24 24 0 24z"/><path d="M20 2c.552 0 1 .448 1 1v3.757l-2 2V4H5v16h14v-2.758l2-2V21c0 .552-.448 1-1 1H4c-.552 0-1-.448-1-1V3c0-.552.448-1 1-1h16zm1.778 6.808l1.414 1.414L15.414 18l-1.416-.002.002-1.412 7.778-7.778zM13 12v2H8v-2h5zm3-4v2H8V8h8z"/>
</symbol>
<symbol id="bb-icon-edit" viewBox="0 0 24 24"><path d="m7 17.013 4.413-.015 9.632-9.54c.378-.378.586-.88.586-1.414s-.208-1.036-.586-1.414l-1.586-1.586c-.756-.756-2.075-.752-2.825-.003L7 12.583v4.43zM18.045 4.458l1.589 1.583-1.597 1.582-1.586-1.585 1.594-1.58zM9 13.417l6.03-5.973 1.586 1.586-6.029 5.971L9 15.006v-1.589z"/><path d="M5 21h14c1.103 0 2-.897 2-2v-8.668l-2 2V19H8.158c-.026 0-.053.01-.079.01-.033 0-.066-.009-.1-.01H5V5h6.847l2-2H5c-1.103 0-2 .897-2 2v14c0 1.103.897 2 2 2z"/>
</symbol>
<symbol id="bb-icon-empty" viewBox="0 0 24 24">
  <g stroke-width="2" stroke="currentColor" fill="none" stroke-linecap="round" stroke-linejoin="round">
  <path stroke="none" d="M0 0h24v24H0z" fill="none"/>
  <circle cx="12" cy="12" r="9"/>
  <line x1="9" y1="10" x2="9.01" y2="10"/>
  <line x1="15" y1="10" x2="15.01" y2="10"/>
  <line x1="9" y1="15" x2="15" y2="15"/>
  </g>

</symbol>
<symbol id="bb-icon-facebook" viewBox="0 0 24 24"><path fill="none" d="M0 0h24v24H0z"/><path d="M14 13.5h2.5l1-4H14v-2c0-1.03 0-2 2-2h1.5V2.14c-.326-.043-1.557-.14-2.857-.14C11.928 2 10 3.657 10 6.7v2.8H7v4h3V22h4v-8.5z"/>
</symbol>
<symbol id="bb-icon-file-pdf" viewBox="0 0 24 24"><path fill="none" d="M0 0h24v24H0z"/><path d="M12 16H8V8h4a4 4 0 1 1 0 8zm-2-6v4h2a2 2 0 1 0 0-4h-2zm5-6H5v16h14V8h-4V4zM3 2.992C3 2.444 3.447 2 3.999 2H16l5 5v13.993A1 1 0 0 1 20.007 22H3.993A1 1 0 0 1 3 21.008V2.992z"/>
</symbol>
<symbol id="bb-icon-file-text" viewBox="0 0 24 24"><path fill="none" d="M0 0h24v24H0z"/><path d="M21 8v12.993A1 1 0 0 1 20.007 22H3.993A.993.993 0 0 1 3 21.008V2.992C3 2.455 3.449 2 4.002 2h10.995L21 8zm-2 1h-5V4H5v16h14V9zM8 7h3v2H8V7zm0 4h8v2H8v-2zm0 4h8v2H8v-2z"/>
</symbol>
<symbol id="bb-icon-flag" viewBox="0 0 20 20">
<path fill-rule="evenodd" clip-rule="evenodd" d="M6.50009 16.0006V9.26855M6.50009 9.26855V4H11.7945V9.26855H6.50009Z" stroke="currentColor" fill="none" stroke-width="1.5"/>
<path fill-rule="evenodd" clip-rule="evenodd" d="M11.7939 6.04944H15.5L13.647 8.97641L15.2353 11.9034H10.2056V9.26911" stroke="currentColor" fill="none" stroke-width="1.5"/>
<path fill-rule="evenodd" clip-rule="evenodd" d="M5 16.0007H8.00015" stroke="currentColor" fill="none" stroke-width="1.5"/>
</symbol>
<symbol id="bb-icon-hand" viewBox="0 0 24 24">
  
<g transform="matrix(1.7142857142857142,0,0,1.7142857142857142,0,0)"><path d="M10.5,6.13a2,2,0,0,1,1.59,2.24l-.61,4.27a1,1,0,0,1-1,.86H4a1,1,0,0,1-.93-.63L2,10.21A2,2,0,0,1,3,7.68L4.35,7V2a1.5,1.5,0,0,1,3,0V5.5Z" style="fill: none;stroke:currentColor;stroke-linecap: round;stroke-linejoin: round"/></g>
</symbol>
<symbol id="bb-icon-happy" viewBox="0 0 24 24">
  <g stroke-width="2" stroke="currentColor" fill="none" stroke-linecap="round" stroke-linejoin="round">
  <path stroke="none" d="M0 0h24v24H0z" fill="none"/>
  <circle cx="12" cy="12" r="9"/>
  <line x1="9" y1="9" x2="9.01" y2="9"/>
  <line x1="15" y1="9" x2="15.01" y2="9"/>
  <path d="M8 13a4 4 0 1 0 8 0m0 0h-8"/>
  </g>

</symbol>
<symbol id="bb-icon-heart" viewBox="0 0 24 24"><path fill="none" d="M0 0H24V24H0z"/><path d="M16.5 3C19.538 3 22 5.5 22 9c0 7-7.5 11-10 12.5-1.978-1.187-7.084-3.937-9.132-8.5h4.698l.934-1.556 3 5L13.566 13H17v-2h-4.566l-.934 1.556-3-5L6.434 11H2.21C2.074 10.363 2 9.696 2 9c0-3.5 2.5-6 5.5-6C9.36 3 11 4 12 5c1-1 2.64-2 4.5-2z"/>
</symbol>
<symbol id="bb-icon-honour" viewBox="0 0 24 24"><path fill="none" d="M0 0h24v24H0z"/><path d="M21 4v14.721a.5.5 0 0 1-.298.458L12 23.03 3.298 19.18A.5.5 0 0 1 3 18.72V4H1V2h22v2h-2zM5 4v13.745l7 3.1 7-3.1V4H5zm3 4h8v2H8V8zm0 4h8v2H8v-2z"/>
</symbol>
<symbol id="bb-icon-hourglass" viewBox="0 0 24 24"><path d="M19 22h1v-2h-1v-1a7.014 7.014 0 0 0-3.433-6.02c-.355-.21-.567-.547-.567-.901v-.158c0-.354.212-.691.566-.9A7.016 7.016 0 0 0 19 5V4h1V2H4v2h1v1a7.016 7.016 0 0 0 3.434 6.021c.354.209.566.545.566.9v.158c0 .354-.212.691-.566.9A7.016 7.016 0 0 0 5 19v1H4v2h15zM17 4v1a5.005 5.005 0 0 1-1.004 3H8.004A5.005 5.005 0 0 1 7 5V4h10zM9.45 14.702c.971-.574 1.55-1.554 1.55-2.623V12h2v.079c0 1.068.579 2.049 1.551 2.623A4.98 4.98 0 0 1 16.573 17H7.427a4.977 4.977 0 0 1 2.023-2.298z"/>
</symbol>
<symbol id="bb-icon-increase" viewBox="0 0 20 20">
<path d="M14.9956 7.20169C14.9944 7.16169 14.9828 7.12391 14.9722 7.08558C14.9639 7.05335 14.96 7.02058 14.9461 6.99113C14.9333 6.96224 14.9117 6.93891 14.8928 6.91224C14.8694 6.87835 14.8483 6.84446 14.8183 6.81669C14.8133 6.81169 14.8111 6.80502 14.8056 6.80058C14.7856 6.78335 14.7611 6.77724 14.7395 6.76335C14.7061 6.74169 14.6733 6.71946 14.6356 6.70502C14.5983 6.69169 14.5617 6.68835 14.5233 6.6828C14.4967 6.67891 14.4728 6.66669 14.4445 6.66669H11.6668C11.3595 6.66669 11.1112 6.91558 11.1112 7.22224C11.1112 7.52891 11.3595 7.7778 11.6668 7.7778H13.2367L10.9946 10.3934L8.61906 8.96835C8.38407 8.82613 8.08186 8.87835 7.90631 9.08891L5.12861 12.4222C4.9325 12.6578 4.96417 13.0084 5.19971 13.2045C5.30416 13.2911 5.42971 13.3334 5.55526 13.3334C5.7147 13.3334 5.87247 13.2656 5.98247 13.1334L8.45574 10.1656L10.8251 11.5878C11.0579 11.7272 11.3568 11.6784 11.5329 11.4728L13.8889 8.72391V10C13.8889 10.3067 14.1372 10.5556 14.4445 10.5556C14.7517 10.5556 15 10.3067 15 10V7.22224C15 7.21502 14.9961 7.20891 14.9956 7.20169Z" fill="currentColor"/>
<mask id="mask0_635_14192" style="mask-type:alpha" maskUnits="userSpaceOnUse" x="5" y="6" width="10" height="8">
<path d="M14.9956 7.20169C14.9944 7.16169 14.9828 7.12391 14.9722 7.08558C14.9639 7.05335 14.96 7.02058 14.9461 6.99113C14.9333 6.96224 14.9117 6.93891 14.8928 6.91224C14.8694 6.87835 14.8483 6.84446 14.8183 6.81669C14.8133 6.81169 14.8111 6.80502 14.8056 6.80058C14.7856 6.78335 14.7611 6.77724 14.7395 6.76335C14.7061 6.74169 14.6733 6.71946 14.6356 6.70502C14.5983 6.69169 14.5617 6.68835 14.5233 6.6828C14.4967 6.67891 14.4728 6.66669 14.4445 6.66669H11.6668C11.3595 6.66669 11.1112 6.91558 11.1112 7.22224C11.1112 7.52891 11.3595 7.7778 11.6668 7.7778H13.2367L10.9946 10.3934L8.61906 8.96835C8.38407 8.82613 8.08186 8.87835 7.90631 9.08891L5.12861 12.4222C4.9325 12.6578 4.96417 13.0084 5.19971 13.2045C5.30416 13.2911 5.42971 13.3334 5.55526 13.3334C5.7147 13.3334 5.87247 13.2656 5.98247 13.1334L8.45574 10.1656L10.8251 11.5878C11.0579 11.7272 11.3568 11.6784 11.5329 11.4728L13.8889 8.72391V10C13.8889 10.3067 14.1372 10.5556 14.4445 10.5556C14.7517 10.5556 15 10.3067 15 10V7.22224C15 7.21502 14.9961 7.20891 14.9956 7.20169Z" fill="white"/>
</mask>
<g mask="url(#mask0_635_14192)">
</g>

</symbol>
<symbol id="bb-icon-information" viewBox="0 0 24 24"><path fill="none" d="M0 0h24v24H0z"/><path d="M12 22C6.477 22 2 17.523 2 12S6.477 2 12 2s10 4.477 10 10-4.477 10-10 10zm0-2a8 8 0 1 0 0-16 8 8 0 0 0 0 16zM11 7h2v2h-2V7zm0 4h2v6h-2v-6z"/>
</symbol>
<symbol id="bb-icon-layer-add" viewBox="0 0 24 24"><path fill="none" d="M0 0h24v24H0z"/><path d="M20.083 15.2l1.202.721a.5.5 0 0 1 0 .858l-8.77 5.262a1 1 0 0 1-1.03 0l-8.77-5.262a.5.5 0 0 1 0-.858l1.202-.721L12 20.05l8.083-4.85zm0-4.7l1.202.721a.5.5 0 0 1 0 .858L12 17.65l-9.285-5.571a.5.5 0 0 1 0-.858l1.202-.721L12 15.35l8.083-4.85zm-7.569-9.191l8.771 5.262a.5.5 0 0 1 0 .858L12 13 2.715 7.429a.5.5 0 0 1 0-.858l8.77-5.262a1 1 0 0 1 1.03 0zM12 3.332L5.887 7 12 10.668 18.113 7 12 3.332z"/>
</symbol>
<symbol id="bb-icon-library" viewBox="0 0 14 14"><g><rect x="0.55" y="0.5" width="3.5" height="13" rx="0.5" fill="none" stroke="currentColor" stroke-linecap="round" stroke-linejoin="round"/><rect x="4.05" y="2.5" width="3.5" height="11" rx="0.5" fill="none" stroke="currentColor" stroke-linecap="round" stroke-linejoin="round"/><rect x="9.26" y="2.3" width="3" height="11" rx="0.5" transform="translate(-1.57 2.85) rotate(-14.05)" fill="none" stroke="currentColor" stroke-linecap="round" stroke-linejoin="round"/><line x1="0.55" y1="10" x2="4.05" y2="10" fill="none" stroke="currentColor" stroke-linecap="round" stroke-linejoin="round"/><line x1="4.05" y1="9" x2="7.55" y2="9" fill="none" stroke="currentColor" stroke-linecap="round" stroke-linejoin="round"/><line x1="10.05" y1="11" x2="12.93" y2="10.28" fill="none" stroke="currentColor" stroke-linecap="round" stroke-linejoin="round"/></g>
</symbol>
<symbol id="bb-icon-light" viewBox="0 0 21 21"><g fill="none" fill-rule="evenodd" stroke="currentColor" stroke-linecap="round" stroke-linejoin="round" transform="translate(2 1)"><path d="m6.5 17.5h4"/><path d="m8.5 4c2.4852814 0 4.5 2.01471863 4.5 4.5 0 1.7663751-1.017722 3.2950485-2.4987786 4.031633l-.0012214.968367c0 1.1045695-.8954305 2-2 2s-2-.8954305-2-2l-.00021218-.9678653c-1.48160351-.7363918-2.49978782-2.2653584-2.49978782-4.0321347 0-2.48528137 2.01471863-4.5 4.5-4.5z"/><path d="m8.5 1.5v-1"/><path d="m13.5 3.5 1-1"/><path d="m2.5 3.5 1-1" transform="matrix(-1 0 0 1 6 0)"/><path d="m13.5 13.5 1-1" transform="matrix(1 0 0 -1 0 26)"/><path d="m2.5 13.5 1-1" transform="matrix(-1 0 0 -1 6 26)"/><path d="m1.5 7.5h-1"/><path d="m16.5 7.5h-1"/></g>
</symbol>
<symbol id="bb-icon-line-chart" viewBox="0 0 24 24"><path fill="none" d="M0 0H24V24H0z"/><path d="M5 3v16h16v2H3V3h2zm15.293 3.293l1.414 1.414L16 13.414l-3-2.999-4.293 4.292-1.414-1.414L13 7.586l3 2.999 4.293-4.292z"/>
</symbol>
<symbol id="bb-icon-link" viewBox="0 0 24 24"><path d="M8.465 11.293c1.133-1.133 3.109-1.133 4.242 0l.707.707 1.414-1.414-.707-.707c-.943-.944-2.199-1.465-3.535-1.465s-2.592.521-3.535 1.465L4.929 12a5.008 5.008 0 0 0 0 7.071 4.983 4.983 0 0 0 3.535 1.462A4.982 4.982 0 0 0 12 19.071l.707-.707-1.414-1.414-.707.707a3.007 3.007 0 0 1-4.243 0 3.005 3.005 0 0 1 0-4.243l2.122-2.121z"/><path d="m12 4.929-.707.707 1.414 1.414.707-.707a3.007 3.007 0 0 1 4.243 0 3.005 3.005 0 0 1 0 4.243l-2.122 2.121c-1.133 1.133-3.109 1.133-4.242 0L10.586 12l-1.414 1.414.707.707c.943.944 2.199 1.465 3.535 1.465s2.592-.521 3.535-1.465L19.071 12a5.008 5.008 0 0 0 0-7.071 5.006 5.006 0 0 0-7.071 0z"/>
</symbol>
<symbol id="bb-icon-list-settings" viewBox="0 0 24 24"><path fill="none" d="M0 0h24v24H0z"/><path d="M2 18h7v2H2v-2zm0-7h9v2H2v-2zm0-7h20v2H2V4zm18.674 9.025l1.156-.391 1 1.732-.916.805a4.017 4.017 0 0 1 0 1.658l.916.805-1 1.732-1.156-.391c-.41.37-.898.655-1.435.83L19 21h-2l-.24-1.196a3.996 3.996 0 0 1-1.434-.83l-1.156.392-1-1.732.916-.805a4.017 4.017 0 0 1 0-1.658l-.916-.805 1-1.732 1.156.391c.41-.37.898-.655 1.435-.83L17 11h2l.24 1.196c.536.174 1.024.46 1.434.83zM18 18a2 2 0 1 0 0-4 2 2 0 0 0 0 4z"/>
</symbol>
<symbol id="bb-icon-list" viewBox="0 0 24 24"><path fill="none" d="M0 0h24v24H0z"/><path d="M8 4h13v2H8V4zm-5-.5h3v3H3v-3zm0 7h3v3H3v-3zm0 7h3v3H3v-3zM8 11h13v2H8v-2zm0 7h13v2H8v-2z"/>
</symbol>
<symbol id="bb-icon-lock" viewBox="0 0 24 24"><path fill="none" d="M0 0h24v24H0z"/><path d="M19 10h1a1 1 0 0 1 1 1v10a1 1 0 0 1-1 1H4a1 1 0 0 1-1-1V11a1 1 0 0 1 1-1h1V9a7 7 0 1 1 14 0v1zM5 12v8h14v-8H5zm6 2h2v4h-2v-4zm6-4V9A5 5 0 0 0 7 9v1h10z"/>
</symbol>
<symbol id="bb-icon-menu" viewBox="0 0 24 24"><path fill="none" d="M0 0h24v24H0z"/><path d="M3 4h18v2H3V4zm0 7h18v2H3v-2zm0 7h18v2H3v-2z"/>
</symbol>
<symbol id="bb-icon-message" viewBox="0 0 24 24"><path d="M20 2H4c-1.103 0-2 .897-2 2v12c0 1.103.897 2 2 2h3v3.767L13.277 18H20c1.103 0 2-.897 2-2V4c0-1.103-.897-2-2-2zm0 14h-7.277L9 18.233V16H4V4h16v12z"/><path d="M7 7h10v2H7zm0 4h7v2H7z"/>
</symbol>
<symbol id="bb-icon-msg-alert" viewBox="0 0 24 24"><path fill="none" d="M0 0h24v24H0z"/><path d="M6.455 19L2 22.5V4a1 1 0 0 1 1-1h18a1 1 0 0 1 1 1v14a1 1 0 0 1-1 1H6.455zM4 18.385L5.763 17H20V5H4v13.385zM11 13h2v2h-2v-2zm0-6h2v5h-2V7z"/>
</symbol>
<symbol id="bb-icon-msg-smile" viewBox="0 0 64 64"><linearGradient id="swqI2SlaZWgv8qXkhwPKWa" x1="32" x2="32" y1="7.5" y2="56.752" gradientUnits="userSpaceOnUse" spreadMethod="reflect"><stop offset="0" stop-color="#1a6dff"/><stop offset="1" stop-color="#c822ff"/></linearGradient><path fill="url(#swqI2SlaZWgv8qXkhwPKWa)" d="M32,56c-1.077,0-2.046-0.555-2.591-1.484l-3.694-6.314c-0.759-1.299-2.099-2.185-3.675-2.432 c-9.479-1.482-16.37-9.85-16.027-19.462C6.371,16.213,15.083,8,25.432,8h13.137c10.349,0,19.061,8.213,19.419,18.308 c0.343,9.611-6.549,17.979-16.028,19.462c-1.575,0.247-2.915,1.133-3.674,2.432l-3.694,6.313C34.046,55.445,33.077,56,32,56z M25.432,10c-9.285,0-17.1,7.348-17.421,16.378C7.705,34.98,13.869,42.467,22.35,43.793c2.173,0.341,4.028,1.579,5.092,3.398 l3.694,6.313C31.397,53.952,31.827,54,32,54s0.603-0.048,0.864-0.496l3.694-6.313c1.063-1.819,2.919-3.058,5.091-3.398 c8.481-1.327,14.646-8.813,14.34-17.415C55.668,17.348,47.854,10,38.568,10H25.432z"/><linearGradient id="swqI2SlaZWgv8qXkhwPKWb" x1="25" x2="25" y1="21.5" y2="28.5" gradientUnits="userSpaceOnUse" spreadMethod="reflect"><stop offset="0" stop-color="#6dc7ff"/><stop offset="1" stop-color="#e6abff"/></linearGradient><path fill="url(#swqI2SlaZWgv8qXkhwPKWb)" d="M25 21.998A3 3 0 1 0 25 27.998A3 3 0 1 0 25 21.998Z"/><linearGradient id="swqI2SlaZWgv8qXkhwPKWc" x1="39" x2="39" y1="21.5" y2="28.5" gradientUnits="userSpaceOnUse" spreadMethod="reflect"><stop offset="0" stop-color="#6dc7ff"/><stop offset="1" stop-color="#e6abff"/></linearGradient><path fill="url(#swqI2SlaZWgv8qXkhwPKWc)" d="M39 21.998A3 3 0 1 0 39 27.998A3 3 0 1 0 39 21.998Z"/><linearGradient id="swqI2SlaZWgv8qXkhwPKWd" x1="32" x2="32" y1="29.625" y2="37.375" gradientUnits="userSpaceOnUse" spreadMethod="reflect"><stop offset="0" stop-color="#6dc7ff"/><stop offset="1" stop-color="#e6abff"/></linearGradient><path fill="url(#swqI2SlaZWgv8qXkhwPKWd)" d="M36,30h-8c-0.552,0-1,0.446-1,0.998v1c0,2.761,2.239,5,5,5s5-2.239,5-5v-1 C37,30.446,36.552,30,36,30z"/><linearGradient id="swqI2SlaZWgv8qXkhwPKWe" x1="32" x2="32" y1="7.5" y2="56.752" gradientUnits="userSpaceOnUse" spreadMethod="reflect"><stop offset="0" stop-color="#1a6dff"/><stop offset="1" stop-color="#c822ff"/></linearGradient><path fill="url(#swqI2SlaZWgv8qXkhwPKWe)" d="M26 12H38V14H26z"/>
</symbol>
<symbol id="bb-icon-pause-circle" viewBox="0 0 24 24"><path fill="none" d="M0 0h24v24H0z"/><path d="M12 22C6.477 22 2 17.523 2 12S6.477 2 12 2s10 4.477 10 10-4.477 10-10 10zm0-2a8 8 0 1 0 0-16 8 8 0 0 0 0 16zM9 9h2v6H9V9zm4 0h2v6h-2V9z"/>
</symbol>
<symbol id="bb-icon-pie-chart" viewBox="0 0 24 24"><path fill="none" d="M0 0h24v24H0z"/><path d="M11 .543c.33-.029.663-.043 1-.043C18.351.5 23.5 5.649 23.5 12c0 .337-.014.67-.043 1h-1.506c-.502 5.053-4.766 9-9.951 9-5.523 0-10-4.477-10-10 0-5.185 3.947-9.449 9-9.95V.542zM11 13V4.062A8.001 8.001 0 0 0 12 20a8.001 8.001 0 0 0 7.938-7H11zm10.448-2A9.503 9.503 0 0 0 13 2.552V11h8.448z"/>
</symbol>
<symbol id="bb-icon-play" viewBox="0 0 24 24"><path fill="none" d="M0 0h24v24H0z"/><path d="M19.376 12.416L8.777 19.482A.5.5 0 0 1 8 19.066V4.934a.5.5 0 0 1 .777-.416l10.599 7.066a.5.5 0 0 1 0 .832z"/>
</symbol>
<symbol id="bb-icon-promote" viewBox="0 0 24 24"><style>@keyframes loader5{0%{-webkit-transform:rotate(0);transform:rotate(0)}to{-webkit-transform:rotate(360deg);transform:rotate(360deg)}}</style><g style="animation:loader5 1.5s linear infinite both;transform-origin:center center"><circle cx="12" cy="12" r="4" stroke="#0A0A30" stroke-width="1.5"/><circle cx="17" cy="7" r="1" fill="#265BFF"/></g>
</symbol>
<symbol id="bb-icon-question" viewBox="0 0 24 24"><path fill="none" d="M0 0h24v24H0z"/><path d="M12 22C6.477 22 2 17.523 2 12S6.477 2 12 2s10 4.477 10 10-4.477 10-10 10zm0-2a8 8 0 1 0 0-16 8 8 0 0 0 0 16zm-1-5h2v2h-2v-2zm2-1.645V14h-2v-1.5a1 1 0 0 1 1-1 1.5 1.5 0 1 0-1.471-1.794l-1.962-.393A3.501 3.501 0 1 1 13 13.355z"/>
</symbol>
<symbol id="bb-icon-repeat" viewBox="0 0 24 24"><path fill="none" d="M0 0h24v24H0z"/><path d="M6 4h15a1 1 0 0 1 1 1v7h-2V6H6v3L1 5l5-4v3zm12 16H3a1 1 0 0 1-1-1v-7h2v6h14v-3l5 4-5 4v-3z"/>
</symbol>
<symbol id="bb-icon-retry" viewBox="0 0 24 24"><path d="M19.89 10.105a8.696 8.696 0 0 0-.789-1.456l-1.658 1.119a6.606 6.606 0 0 1 .987 2.345 6.659 6.659 0 0 1 0 2.648 6.495 6.495 0 0 1-.384 1.231 6.404 6.404 0 0 1-.603 1.112 6.654 6.654 0 0 1-1.776 1.775 6.606 6.606 0 0 1-2.343.987 6.734 6.734 0 0 1-2.646 0 6.55 6.55 0 0 1-3.317-1.788 6.605 6.605 0 0 1-1.408-2.088 6.613 6.613 0 0 1-.382-1.23 6.627 6.627 0 0 1 .382-3.877A6.551 6.551 0 0 1 7.36 8.797 6.628 6.628 0 0 1 9.446 7.39c.395-.167.81-.296 1.23-.382.107-.022.216-.032.324-.049V10l5-4-5-4v2.938a8.805 8.805 0 0 0-.725.111 8.512 8.512 0 0 0-3.063 1.29A8.566 8.566 0 0 0 4.11 16.77a8.535 8.535 0 0 0 1.835 2.724 8.614 8.614 0 0 0 2.721 1.833 8.55 8.55 0 0 0 5.061.499 8.576 8.576 0 0 0 6.162-5.056c.22-.52.389-1.061.5-1.608a8.643 8.643 0 0 0 0-3.45 8.684 8.684 0 0 0-.499-1.607z"/>
</symbol>
<symbol id="bb-icon-right-bold" viewBox="0 0 31 30">
<path d="M12.375 20C12.375 19.68 12.4975 19.36 12.7412 19.1163L16.8725 14.985L12.8975 10.8688C12.4175 10.3713 12.43 9.58128 12.9287 9.10128C13.425 8.62128 14.2175 8.63503 14.6962 9.13128L19.5237 14.1313C19.9975 14.6225 19.9912 15.4025 19.5087 15.8838L14.5087 20.8838C14.02 21.3725 13.23 21.3725 12.7412 20.8838C12.4975 20.64 12.375 20.32 12.375 20Z" fill="#0D1C2E"/>
<mask id="mask0_635_14720" style="mask-type:alpha" maskUnits="userSpaceOnUse" x="12" y="8" width="8" height="14">
<path d="M12.375 20C12.375 19.68 12.4975 19.36 12.7412 19.1163L16.8725 14.985L12.8975 10.8688C12.4175 10.3713 12.43 9.58128 12.9287 9.10128C13.425 8.62128 14.2175 8.63503 14.6962 9.13128L19.5237 14.1313C19.9975 14.6225 19.9912 15.4025 19.5087 15.8838L14.5087 20.8838C14.02 21.3725 13.23 21.3725 12.7412 20.8838C12.4975 20.64 12.375 20.32 12.375 20Z" fill="white"/>
</mask>
<g mask="url(#mask0_635_14720)">
</g>

</symbol>
<symbol id="bb-icon-rocket" viewBox="0 0 24 24"><path fill="none" d="M0 0h24v24H0z"/><path d="M15.502 20A6.523 6.523 0 0 1 12 23.502 6.523 6.523 0 0 1 8.498 20h2.26c.326.489.747.912 1.242 1.243.495-.33.916-.754 1.243-1.243h2.259zM18 14.805l2 2.268V19H4v-1.927l2-2.268V9c0-3.483 2.504-6.447 6-7.545C15.496 2.553 18 5.517 18 9v5.805zM17.27 17L16 15.56V9c0-2.318-1.57-4.43-4-5.42C9.57 4.57 8 6.681 8 9v6.56L6.73 17h10.54zM12 11a2 2 0 1 1 0-4 2 2 0 0 1 0 4z"/>
</symbol>
<symbol id="bb-icon-sad" viewBox="0 0 24 24">
  <g stroke-width="2" stroke="currentColor" fill="none" stroke-linecap="round" stroke-linejoin="round">
  <path stroke="none" d="M0 0h24v24H0z" fill="none"/>
  <circle cx="12" cy="12" r="9"/>
  <line x1="9" y1="10" x2="9.01" y2="10"/>
  <line x1="15" y1="10" x2="15.01" y2="10"/>
  <path d="M9.5 15.25a3.5 3.5 0 0 1 5 0"/>
  </g>

</symbol>
<symbol id="bb-icon-save" viewBox="0 0 24 24"><path fill="none" d="M0 0h24v24H0z"/><path d="M18 19h1V6.828L17.172 5H16v4H7V5H5v14h1v-7h12v7zM4 3h14l2.707 2.707a1 1 0 0 1 .293.707V20a1 1 0 0 1-1 1H4a1 1 0 0 1-1-1V4a1 1 0 0 1 1-1zm4 11v5h8v-5H8z"/>
</symbol>
<symbol id="bb-icon-search-line" viewBox="0 0 24 24"><path fill="none" d="M0 0h24v24H0z"/><path d="M18.031 16.617l4.283 4.282-1.415 1.415-4.282-4.283A8.96 8.96 0 0 1 11 20c-4.968 0-9-4.032-9-9s4.032-9 9-9 9 4.032 9 9a8.96 8.96 0 0 1-1.969 5.617zm-2.006-.742A6.977 6.977 0 0 0 18 11c0-3.868-3.133-7-7-7-3.868 0-7 3.132-7 7 0 3.867 3.132 7 7 7a6.977 6.977 0 0 0 4.875-1.975l.15-.15z"/>
</symbol>
<symbol id="bb-icon-search" viewBox="0 0 24 24"><path fill="none" d="M0 0h24v24H0z"/><path d="M18.031 16.617l4.283 4.282-1.415 1.415-4.282-4.283A8.96 8.96 0 0 1 11 20c-4.968 0-9-4.032-9-9s4.032-9 9-9 9 4.032 9 9a8.96 8.96 0 0 1-1.969 5.617zm-2.006-.742A6.977 6.977 0 0 0 18 11c0-3.868-3.133-7-7-7-3.868 0-7 3.132-7 7 0 3.867 3.132 7 7 7a6.977 6.977 0 0 0 4.875-1.975l.15-.15z"/>
</symbol>
<symbol id="bb-icon-service" viewBox="0 0 24 24"><path fill="none" d="M0 0h24v24H0z"/><path d="M22 17.002a6.002 6.002 0 0 1-4.713 5.86l-.638-1.914A4.003 4.003 0 0 0 19.465 19H17a2 2 0 0 1-2-2v-4a2 2 0 0 1 2-2h2.938a8.001 8.001 0 0 0-15.876 0H7a2 2 0 0 1 2 2v4a2 2 0 0 1-2 2H4a2 2 0 0 1-2-2v-5C2 6.477 6.477 2 12 2s10 4.477 10 10V17.002z"/>
</symbol>
<symbol id="bb-icon-share-box" viewBox="0 0 24 24"><path fill="none" d="M0 0h24v24H0z"/><path d="M10 3v2H5v14h14v-5h2v6a1 1 0 0 1-1 1H4a1 1 0 0 1-1-1V4a1 1 0 0 1 1-1h6zm7.707 4.707L12 13.414 10.586 12l5.707-5.707L13 3h8v8l-3.293-3.293z"/>
</symbol>
<symbol id="bb-icon-share" viewBox="0 0 24 24"><path fill="none" d="M0 0h24v24H0z"/><path d="M13.12 17.023l-4.199-2.29a4 4 0 1 1 0-5.465l4.2-2.29a4 4 0 1 1 .959 1.755l-4.2 2.29a4.008 4.008 0 0 1 0 1.954l4.199 2.29a4 4 0 1 1-.959 1.755zM6 14a2 2 0 1 0 0-4 2 2 0 0 0 0 4zm11-6a2 2 0 1 0 0-4 2 2 0 0 0 0 4zm0 12a2 2 0 1 0 0-4 2 2 0 0 0 0 4z"/>
</symbol>
<symbol id="bb-icon-smile" viewBox="0 0 24 24">
  <g stroke-width="2" stroke="currentColor" fill="none" stroke-linecap="round" stroke-linejoin="round">
  <path stroke="none" d="M0 0h24v24H0z" fill="none"/>
  <circle cx="12" cy="12" r="9"/>
  <line x1="9" y1="10" x2="9.01" y2="10"/>
  <line x1="15" y1="10" x2="15.01" y2="10"/>
  <path d="M9.5 15a3.5 3.5 0 0 0 5 0"/>
  </g>

</symbol>
<symbol id="bb-icon-sort-down" viewBox="0 0 24 24"><path d="m11.998 17 7-8h-14z"/>
</symbol>
<symbol id="bb-icon-sort-up" viewBox="0 0 24 24"><path d="M5 15h14l-7-8z"/>
</symbol>
<symbol id="bb-icon-sort" viewBox="0 0 24 24"><path d="M6.227 11h11.547c.862 0 1.32-1.02.747-1.665L12.748 2.84a.998.998 0 0 0-1.494 0L5.479 9.335C4.906 9.98 5.364 11 6.227 11zm5.026 10.159a.998.998 0 0 0 1.494 0l5.773-6.495c.574-.644.116-1.664-.747-1.664H6.227c-.862 0-1.32 1.02-.747 1.665l5.773 6.494z"/>
</symbol>
<symbol id="bb-icon-star" viewBox="0 0 24 24"><path fill="none" d="M0 0h24v24H0z"/><path d="M12 .5l4.226 6.183 7.187 2.109-4.575 5.93.215 7.486L12 19.69l-7.053 2.518.215-7.486-4.575-5.93 7.187-2.109L12 .5zm0 3.544L9.022 8.402 3.957 9.887l3.225 4.178-.153 5.275L12 17.566l4.97 1.774-.152-5.275 3.224-4.178-5.064-1.485L12 4.044zM10 12a2 2 0 1 0 4 0h2a4 4 0 1 1-8 0h2z"/>
</symbol>
<symbol id="bb-icon-stop" viewBox="0 0 24 24"><g data-name="Layer 2"><g data-name="slash"><rect width="24" height="24" opacity="0"/><path d="M12 2a10 10 0 1 0 10 10A10 10 0 0 0 12 2zm8 10a7.92 7.92 0 0 1-1.69 4.9L7.1 5.69A7.92 7.92 0 0 1 12 4a8 8 0 0 1 8 8zM4 12a7.92 7.92 0 0 1 1.69-4.9L16.9 18.31A7.92 7.92 0 0 1 12 20a8 8 0 0 1-8-8z"/></g></g>
</symbol>
<symbol id="bb-icon-suitcase-line" viewBox="0 0 24 24"><path fill="none" d="M0 0H24V24H0z"/><path d="M15 3c.552 0 1 .448 1 1v2h5c.552 0 1 .448 1 1v13c0 .552-.448 1-1 1H3c-.552 0-1-.448-1-1V7c0-.552.448-1 1-1h5V4c0-.552.448-1 1-1h6zm1 5H8v11h8V8zM4 8v11h2V8H4zm10-3h-4v1h4V5zm4 3v11h2V8h-2z"/>
</symbol>
<symbol id="bb-icon-thumb-down" viewBox="0 0 24 24"><path fill="none" d="M0 0h24v24H0z"/><path d="M9.4 16H3a2 2 0 0 1-2-2v-2.104a2 2 0 0 1 .15-.762L4.246 3.62A1 1 0 0 1 5.17 3H22a1 1 0 0 1 1 1v10a1 1 0 0 1-1 1h-3.482a1 1 0 0 0-.817.423l-5.453 7.726a.5.5 0 0 1-.632.159L9.802 22.4a2.5 2.5 0 0 1-1.305-2.853L9.4 16zm7.6-2.588V5H5.84L3 11.896V14h6.4a2 2 0 0 1 1.938 2.493l-.903 3.548a.5.5 0 0 0 .261.571l.661.33 4.71-6.672c.25-.354.57-.644.933-.858zM19 13h2V5h-2v8z"/>
</symbol>
<symbol id="bb-icon-thumb-up" viewBox="0 0 24 24"><path fill="none" d="M0 0h24v24H0z"/><path d="M14.6 8H21a2 2 0 0 1 2 2v2.104a2 2 0 0 1-.15.762l-3.095 7.515a1 1 0 0 1-.925.619H2a1 1 0 0 1-1-1V10a1 1 0 0 1 1-1h3.482a1 1 0 0 0 .817-.423L11.752.85a.5.5 0 0 1 .632-.159l1.814.907a2.5 2.5 0 0 1 1.305 2.853L14.6 8zM7 10.588V19h11.16L21 12.104V10h-6.4a2 2 0 0 1-1.938-2.493l.903-3.548a.5.5 0 0 0-.261-.571l-.661-.33-4.71 6.672c-.25.354-.57.644-.933.858zM5 11H3v8h2v-8z"/>
</symbol>
<symbol id="bb-icon-to-left" viewBox="0 0 24 24"><path fill="none" d="M0 0h24v24H0z"/><path d="M7.828 11H20v2H7.828l5.364 5.364-1.414 1.414L4 12l7.778-7.778 1.414 1.414z"/>
</symbol>
<symbol id="bb-icon-to-right" viewBox="0 0 24 24"><path fill="none" d="M0 0h24v24H0z"/><path d="M16.172 11l-5.364-5.364 1.414-1.414L20 12l-7.778 7.778-1.414-1.414L16.172 13H4v-2z"/>
</symbol>
<symbol id="bb-icon-toggle-line" viewBox="0 0 24 24"><path fill="none" d="M0 0h24v24H0z"/><path d="M8 7a5 5 0 1 0 0 10h8a5 5 0 0 0 0-10H8zm0-2h8a7 7 0 0 1 0 14H8A7 7 0 0 1 8 5zm0 10a3 3 0 1 1 0-6 3 3 0 0 1 0 6z"/>
</symbol>
<symbol id="bb-icon-tool" viewBox="0 0 18 21">
<path fill-rule="evenodd" clip-rule="evenodd" d="M16.3334 0.833344C16.8396 0.833344 17.25 1.24375 17.25 1.75001V6.33334C17.25 6.8396 16.8396 7.25001 16.3334 7.25001H11.75V19.1667C11.75 19.6729 11.3396 20.0833 10.8334 20.0833H7.16669C6.66043 20.0833 6.25002 19.6729 6.25002 19.1667V7.25001H1.20835C0.702093 7.25001 0.291687 6.8396 0.291687 6.33334V4.14984C0.291872 3.80273 0.488102 3.4855 0.798604 3.33034L5.79169 0.833344H16.3334ZM11.75 2.66668H6.22435L2.12502 4.71634V5.41668H8.08335V18.25H9.91669V5.41668H11.75V2.66668ZM15.4167 2.66668H13.5834V5.41668H15.4167V2.66668Z"/>

</symbol>
<symbol id="bb-icon-trend" viewBox="0 0 24 24"><path fill="none" d="M0 0h24v24H0z"/><path d="M4 5v14h16V5H4zM3 3h18a1 1 0 0 1 1 1v16a1 1 0 0 1-1 1H3a1 1 0 0 1-1-1V4a1 1 0 0 1 1-1zm11.793 6.793L13 8h5v5l-1.793-1.793-3.864 3.864-2.121-2.121-2.829 2.828-1.414-1.414 4.243-4.243 2.121 2.122 2.45-2.45z"/>
</symbol>
<symbol id="bb-icon-trophy" viewBox="0 0 17 17">
<path fill-rule="evenodd" clip-rule="evenodd" d="M9.18688 11.9978V13.4583H12.6212V14.875H4.3788V13.4583H7.81315V11.9978C5.06563 11.6405 3.00511 9.23081 3.00507 6.375V2.125H13.995V6.375C13.9949 9.23081 11.9344 11.6405 9.18688 11.9978ZM4.37878 3.54169V6.37502C4.37878 8.72223 6.22391 10.625 8.5 10.625C10.7761 10.625 12.6212 8.72223 12.6212 6.37502V3.54169H4.37878ZM0.944458 3.54169H2.3182V6.37502H0.944458V3.54169ZM14.6818 3.54169H16.0556V6.37502H14.6818V3.54169Z" fill="currentColor"/>

</symbol>
<symbol id="bb-icon-view" viewBox="0 0 24 24"><path fill="none" d="M0 0h24v24H0z"/><path d="M12 3c5.392 0 9.878 3.88 10.819 9-.94 5.12-5.427 9-10.819 9-5.392 0-9.878-3.88-10.819-9C2.121 6.88 6.608 3 12 3zm0 16a9.005 9.005 0 0 0 8.777-7 9.005 9.005 0 0 0-17.554 0A9.005 9.005 0 0 0 12 19zm0-2.5a4.5 4.5 0 1 1 0-9 4.5 4.5 0 0 1 0 9zm0-2a2.5 2.5 0 1 0 0-5 2.5 2.5 0 0 0 0 5z"/>
</symbol>
<symbol id="bb-icon-warning" viewBox="0 0 24 24"><path fill="none" d="M0 0h24v24H0z"/><path d="M12 22C6.477 22 2 17.523 2 12S6.477 2 12 2s10 4.477 10 10-4.477 10-10 10zm0-2a8 8 0 1 0 0-16 8 8 0 0 0 0 16zm-1-5h2v2h-2v-2zm0-8h2v6h-2V7z"/>
</symbol>
<symbol id="bb-icon-web" viewBox="0 0 24 24"><path fill="none" d="M0 0h24v24H0z"/><path d="M3 3h18a1 1 0 0 1 1 1v16a1 1 0 0 1-1 1H3a1 1 0 0 1-1-1V4a1 1 0 0 1 1-1zm17 8H4v8h16v-8zm0-2V5H4v4h16zM9 6h2v2H9V6zM5 6h2v2H5V6z"/>
</symbol>
<symbol id="bb-icon-cloud-off" viewBox="0 0 24 24"><path fill="none" d="M0 0h24v24H0z"/><path d="M3.515 2.1l19.092 19.092-1.415 1.415-2.014-2.015A5.985 5.985 0 0 1 17 21H7A6 6 0 0 1 5.008 9.339a6.992 6.992 0 0 1 .353-2.563L2.1 3.514 3.515 2.1zM7 9c0 .081.002.163.006.243l.07 1.488-1.404.494A4.002 4.002 0 0 0 7 19h10c.186 0 .369-.013.548-.037L7.03 8.445C7.01 8.627 7 8.812 7 9zm5-7a7 7 0 0 1 6.992 7.339 6.003 6.003 0 0 1 3.212 8.65l-1.493-1.493a3.999 3.999 0 0 0-5.207-5.206L14.01 9.795C14.891 9.29 15.911 9 17 9a5 5 0 0 0-7.876-4.09l-1.43-1.43A6.97 6.97 0 0 1 12 2z"/>
</symbol></svg>